<svg width="96" height="24" viewBox="0 0 96 24" fill="none" xmlns="http://www.w3.org/2000/svg">
<path d="M8.31997 23.04C6.82664 23.04 5.48264 22.8587 4.28797 22.496C3.0933 22.112 1.95197 21.4507 0.863971 20.512C0.586637 20.2773 0.373304 20.0107 0.223971 19.712C0.0746375 19.4133 -2.92063e-05 19.1147 -2.92063e-05 18.816C-2.92063e-05 18.3253 0.170637 17.8987 0.511971 17.536C0.874638 17.152 1.32264 16.96 1.85597 16.96C2.2613 16.96 2.62397 17.088 2.94397 17.344C3.75464 18.0053 4.55464 18.5067 5.34397 18.848C6.15464 19.1893 7.14664 19.36 8.31997 19.36C9.1093 19.36 9.83464 19.2427 10.496 19.008C11.1573 18.752 11.6906 18.4213 12.096 18.016C12.5013 17.5893 12.704 17.1093 12.704 16.576C12.704 15.936 12.512 15.392 12.128 14.944C11.744 14.496 11.1573 14.1227 10.368 13.824C9.57864 13.504 8.57597 13.2587 7.35997 13.088C6.20797 12.9173 5.19464 12.6613 4.31997 12.32C3.4453 11.9573 2.7093 11.5093 2.11197 10.976C1.53597 10.4213 1.09864 9.78133 0.799971 9.056C0.501304 8.30933 0.351971 7.47733 0.351971 6.56C0.351971 5.17333 0.703971 3.98933 1.40797 3.008C2.1333 2.02667 3.10397 1.28 4.31997 0.768C5.53597 0.256 6.87997 0 8.35197 0C9.73864 0 11.0186 0.213333 12.192 0.639999C13.3866 1.04533 14.3573 1.568 15.104 2.208C15.7226 2.69867 16.032 3.264 16.032 3.904C16.032 4.37333 15.8506 4.8 15.488 5.184C15.1253 5.568 14.6986 5.76 14.208 5.76C13.888 5.76 13.6 5.664 13.344 5.472C13.0026 5.17333 12.544 4.896 11.968 4.64C11.392 4.36267 10.784 4.13867 10.144 3.968C9.50397 3.776 8.90664 3.68 8.35197 3.68C7.43464 3.68 6.65597 3.79733 6.01597 4.032C5.3973 4.26667 4.92797 4.58667 4.60797 4.992C4.28797 5.39733 4.12797 5.86667 4.12797 6.4C4.12797 7.04 4.3093 7.57333 4.67197 8C5.05597 8.40533 5.59997 8.736 6.30397 8.992C7.00797 9.22667 7.85064 9.44 8.83197 9.632C10.112 9.86667 11.232 10.144 12.192 10.464C13.1733 10.784 13.984 11.2 14.624 11.712C15.264 12.2027 15.744 12.832 16.064 13.6C16.384 14.3467 16.544 15.264 16.544 16.352C16.544 17.7387 16.16 18.9333 15.392 19.936C14.624 20.9387 13.6106 21.7067 12.352 22.24C11.1146 22.7733 9.77064 23.04 8.31997 23.04ZM29.4617 0.32C30.5711 0.32 31.6057 0.64 32.5657 1.28C33.5471 1.92 34.3364 2.784 34.9337 3.872C35.5311 4.96 35.8297 6.176 35.8297 7.52C35.8297 8.84267 35.5311 10.048 34.9337 11.136C34.3364 12.224 33.5471 13.0987 32.5657 13.76C31.6057 14.4 30.5711 14.72 29.4617 14.72H23.5737L23.8937 14.144V20.768C23.8937 21.3227 23.7231 21.792 23.3817 22.176C23.0404 22.5387 22.5924 22.72 22.0377 22.72C21.5044 22.72 21.0671 22.5387 20.7257 22.176C20.3844 21.792 20.2137 21.3227 20.2137 20.768V2.272C20.2137 1.71733 20.3951 1.25867 20.7577 0.896C21.1417 0.512 21.6111 0.32 22.1657 0.32H29.4617ZM29.4617 11.072C29.8671 11.072 30.2617 10.9013 30.6457 10.56C31.0297 10.2187 31.3497 9.78133 31.6057 9.248C31.8617 8.69333 31.9897 8.11733 31.9897 7.52C31.9897 6.90133 31.8617 6.32533 31.6057 5.792C31.3497 5.25867 31.0297 4.832 30.6457 4.512C30.2617 4.17067 29.8671 4 29.4617 4H23.5097L23.8937 3.424V11.584L23.5417 11.072H29.4617ZM43.495 20.768C43.495 21.3227 43.2923 21.792 42.887 22.176C42.4816 22.5387 42.0123 22.72 41.479 22.72C40.8816 22.72 40.4016 22.5387 40.039 22.176C39.6763 21.792 39.495 21.3227 39.495 20.768V2.272C39.495 1.71733 39.687 1.25867 40.071 0.896C40.455 0.512 40.9456 0.32 41.543 0.32C42.055 0.32 42.503 0.512 42.887 0.896C43.2923 1.25867 43.495 1.71733 43.495 2.272V20.768ZM50.6115 22.72C50.0141 22.72 49.4808 22.5387 49.0115 22.176C48.5421 21.792 48.3075 21.3227 48.3075 20.768V2.272C48.3075 1.71733 48.4888 1.25867 48.8515 0.896C49.2355 0.512 49.7048 0.32 50.2595 0.32H59.4755C60.5848 0.32 61.6195 0.618666 62.5795 1.216C63.5608 1.792 64.3501 2.60267 64.9475 3.648C65.5448 4.672 65.8435 5.856 65.8435 7.2C65.8435 8.01067 65.6728 8.8 65.3315 9.568C65.0115 10.336 64.5635 11.0293 63.9875 11.648C63.4328 12.2667 62.8035 12.7467 62.0995 13.088L62.1315 12.352C62.7288 12.672 63.2195 13.056 63.6035 13.504C64.0088 13.9307 64.3181 14.4 64.5315 14.912C64.7661 15.4027 64.9048 15.936 64.9475 16.512C65.0328 17.0453 65.0861 17.5147 65.1075 17.92C65.1501 18.3253 65.2141 18.6667 65.2995 18.944C65.4061 19.2213 65.5981 19.4347 65.8755 19.584C66.3448 19.8613 66.6328 20.2667 66.7395 20.8C66.8675 21.312 66.7501 21.7707 66.3875 22.176C66.1528 22.4533 65.8541 22.6347 65.4915 22.72C65.1288 22.784 64.7661 22.784 64.4035 22.72C64.0408 22.6347 63.7421 22.528 63.5075 22.4C63.1448 22.1867 62.7821 21.8773 62.4195 21.472C62.0568 21.0453 61.7581 20.48 61.5235 19.776C61.3101 19.072 61.2035 18.1653 61.2035 17.056C61.2035 16.6933 61.1395 16.3627 61.0115 16.064C60.8835 15.744 60.7021 15.4773 60.4675 15.264C60.2328 15.0293 59.9341 14.8587 59.5715 14.752C59.2088 14.624 58.7821 14.56 58.2915 14.56H51.8275L52.3075 13.824V20.768C52.3075 21.3227 52.1581 21.792 51.8595 22.176C51.5608 22.5387 51.1448 22.72 50.6115 22.72ZM51.8595 11.264H59.3155C59.6995 11.264 60.0728 11.0933 60.4355 10.752C60.7981 10.3893 61.0968 9.90933 61.3315 9.312C61.5661 8.69333 61.6835 8.02133 61.6835 7.296C61.6835 6.35733 61.4275 5.57867 60.9155 4.96C60.4248 4.32 59.8915 4 59.3155 4H51.9235L52.3075 2.976V12.032L51.8595 11.264ZM74.2762 20.768C74.2762 21.3227 74.0736 21.792 73.6682 22.176C73.2629 22.5387 72.7936 22.72 72.2602 22.72C71.6629 22.72 71.1829 22.5387 70.8202 22.176C70.4576 21.792 70.2762 21.3227 70.2762 20.768V2.272C70.2762 1.71733 70.4682 1.25867 70.8522 0.896C71.2362 0.512 71.7269 0.32 72.3242 0.32C72.8362 0.32 73.2842 0.512 73.6682 0.896C74.0736 1.25867 74.2762 1.71733 74.2762 2.272V20.768ZM86.6727 22.72C86.0754 22.72 85.5847 22.5387 85.2007 22.176C84.8167 21.792 84.6247 21.3227 84.6247 20.768V2.208H88.7847V20.768C88.7847 21.3227 88.5821 21.792 88.1767 22.176C87.7927 22.5387 87.2914 22.72 86.6727 22.72ZM79.6007 4C79.0461 4 78.5767 3.82933 78.1927 3.488C77.8301 3.14667 77.6487 2.69867 77.6487 2.144C77.6487 1.58933 77.8301 1.152 78.1927 0.832001C78.5767 0.490667 79.0461 0.32 79.6007 0.32H93.8087C94.3634 0.32 94.8221 0.490667 95.1847 0.832001C95.5687 1.17333 95.7607 1.62133 95.7607 2.176C95.7607 2.73067 95.5687 3.17867 95.1847 3.52C94.8221 3.84 94.3634 4 93.8087 4H79.6007Z" fill="white"/>
</svg>
